<svg width="100" height="100" viewBox="0 0 100 100" fill="none" xmlns="http://www.w3.org/2000/svg">
<circle cx="50" cy="50" r="50" fill="white"/>
<path d="M30.2 71.33C26.7167 71.33 23.6367 70.615 20.96 69.185C18.32 67.755 16.2483 65.7933 14.745 63.3C13.2417 60.77 12.49 57.9283 12.49 54.775V32.445H20.795V54.39C20.795 56.1867 21.1983 57.8 22.005 59.23C22.8483 60.66 23.9667 61.7967 25.36 62.64C26.79 63.4833 28.4033 63.905 30.2 63.905C32.0333 63.905 33.665 63.4833 35.095 62.64C36.5617 61.7967 37.7167 60.66 38.56 59.23C39.4033 57.8 39.825 56.1867 39.825 54.39V32.445H47.855V54.775C47.855 57.9283 47.1033 60.77 45.6 63.3C44.0967 65.7933 42.0067 67.755 39.33 69.185C36.69 70.615 33.6467 71.33 30.2 71.33Z" fill="#1E1E1E"/>
<path d="M69.8 29.67C73.2833 29.67 76.3633 30.385 79.04 31.815C81.68 33.245 83.7517 35.2067 85.255 37.7C86.7583 40.23 87.51 43.0717 87.51 46.225L87.51 68.555L79.205 68.555L79.205 46.61C79.205 44.8133 78.8017 43.2 77.995 41.77C77.1517 40.34 76.0333 39.2033 74.64 38.36C73.21 37.5167 71.5967 37.095 69.8 37.095C67.9667 37.095 66.335 37.5167 64.905 38.36C63.4383 39.2033 62.2833 40.34 61.44 41.77C60.5967 43.2 60.175 44.8133 60.175 46.61L60.175 68.555L52.145 68.555L52.145 46.225C52.145 43.0717 52.8967 40.23 54.4 37.7C55.9033 35.2067 57.9933 33.245 60.67 31.815C63.31 30.385 66.3533 29.67 69.8 29.67Z" fill="#1E1E1E"/>
</svg>
